<svg width="18" height="18" viewBox="0 0 18 18" fill="none" xmlns="http://www.w3.org/2000/svg">
<path d="M15.9667 17.25L10.1917 11.475C9.73333 11.8417 9.20625 12.1319 8.61042 12.3458C8.01458 12.5597 7.38056 12.6667 6.70833 12.6667C5.04306 12.6667 3.63368 12.0899 2.48021 10.9365C1.32674 9.78299 0.75 8.37361 0.75 6.70833C0.75 5.04306 1.32674 3.63368 2.48021 2.48021C3.63368 1.32674 5.04306 0.75 6.70833 0.75C8.37361 0.75 9.78299 1.32674 10.9365 2.48021C12.0899 3.63368 12.6667 5.04306 12.6667 6.70833C12.6667 7.38056 12.5597 8.01458 12.3458 8.61042C12.1319 9.20625 11.8417 9.73333 11.475 10.1917L17.25 15.9667L15.9667 17.25ZM6.70833 10.8333C7.85417 10.8333 8.82812 10.4323 9.63021 9.63021C10.4323 8.82812 10.8333 7.85417 10.8333 6.70833C10.8333 5.5625 10.4323 4.58854 9.63021 3.78646C8.82812 2.98438 7.85417 2.58333 6.70833 2.58333C5.5625 2.58333 4.58854 2.98438 3.78646 3.78646C2.98438 4.58854 2.58333 5.5625 2.58333 6.70833C2.58333 7.85417 2.98438 8.82812 3.78646 9.63021C4.58854 10.4323 5.5625 10.8333 6.70833 10.8333Z" fill="#1D1B20"/>
</svg>
